<svg xmlns="http://www.w3.org/2000/svg" class="el-tooltip" color-interpolation-filters="sRGB" style="margin:auto" version="1" viewBox="0 0 340 250">
  <g fill="#2bb656" class="linesvg">
    <path fill="none" stroke="#2bb656" stroke-width="2" d="M65.3 89.5v-5H148v5M65.3 160.6v5H148v-5"/>
    <path d="M133.3 114.3l-19.7 36.6q-.7 1.8-2.6 2.8-2 1-4 1-5.2 0-7.4-3.8L80 114.3q-1.4-2.5-.5-5.4 1-2.8 3.5-4.2 2.5-1.1 5.3-.4 2.8.8 4.3 3.3l14.4 26.9 14-27q1.4-2.4 4.2-3.2 2.8-.7 5.4.4 2.5 1.4 3.4 4.2.8 2.8-.6 5.4zm12.2 21.3v-14q-2.9 0-5-2.2-2.3-2.2-2.3-5.1 0-3 2.2-4.9 2.2-2 5.1-2v-5.6q0-3 2.2-4.9 2.2-2 5.1-2 2.8 0 4.7 2 2 2 2 4.9v2.4h3.3q3 0 5.1 1.9 2.2 1.9 2.2 4.8t-2.2 5q-2.2 2.3-5 2.3h-3.5v17.4q.4 2.2 1.5 3.7 1 1.6 2.4 3 2.2 1.8 2.8 4.6.6 2.9-1.3 5-1.9 2.3-4.5 2.6-2.6.4-5.2-1-4-3.3-6.4-8-2.4-4.5-3.2-10zm41-15.4V147q0 2.9-1.9 5-1.9 2.3-4.8 2.3-3.3 0-5.3-2.2t-2-5.1v-26.8q0-3 2-5.1 2-2.2 5.3-2.2 3 0 4.8 2.2 2 2.2 2 5zm-6.7-10.5q-3 0-5.1-2-2.2-2-2.2-4.7 0-3 2.2-5.2 2.1-2.1 5.1-2.1 2.5 0 4.6 2.1 2.1 2.2 2.1 5.2 0 2.8-2 4.7-2.2 2-4.7 2zm26.7-8.4v45.9q0 2.9-1.9 5-1.9 2.3-4.8 2.3t-5-2.2q-2.3-2.2-2.3-5.1v-46q0-2.8 2.2-4.8t5.1-2q3 0 4.8 2 2 2 2 4.9zm39.2 15q-1.3 2.4-3 3.2-1.7.9-3.5.7-1.8-.1-3.7-.8L232 118q-1.7-.6-3.1-.9-1.5-.2-2.4.7-1 1.2 0 2.1 1.1 1 3.4 2l5.3 2.3q3 1.3 5.7 3.2 2.6 1.9 4.5 4.6 1.8 2.7 1.8 6.5 0 5.6-2 8.9-2.2 3.4-5.1 5.2-3 1.8-6 2.3-3.2.6-5.2.6-1.2 0-3.3-.4-2-.3-4.4-1-2.3-.7-4.6-1.9-2.3-1.1-4-2.7-1.6-1.6-2.3-3.7-.7-2.1.2-4.8 1.2-2.4 3-3.1 1.7-.6 3.7-.3 2 .4 4.2 1.3 2.2 1 4.3 1.7 2 .8 3.9.9 1.8.2 3.2-1 1.3-1.4.3-2.4t-3.3-2l-5.4-2q-3-1.1-5.9-3-2.8-1.7-4.7-4.4-1.9-2.6-1.9-6.6 0-4.7 1.8-7.9 1.8-3.1 4.5-5 2.6-2 5.8-2.7 3.1-.8 5.8-.8 3.8 0 7.3 1 3.4 1 5.8 2.8 2.4 1.7 3.3 3.9 1 2.3-.4 4.8z"/>
  </g>
</svg>
