<svg xmlns="http://www.w3.org/2000/svg" class="el-tooltip" color-interpolation-filters="sRGB" style="margin:auto" version="1" viewBox="0 0 340 250">
  <g fill="#e20074" class="bordersvg">
    <path fill="none" stroke="#e20074" stroke-width="3" d="M123.9 95.4V83.8h92.3v11.6M123.9 164.5v11.6h92.3v-11.6"/>
    <path fill="none" stroke="#e20074" stroke-width="3" d="M133.9 83.8v-10h92.3v21.6M216.2 170.3h10v-5.8"/>
    <path fill="none" d="M77.7 95.4h184.6v69.1H77.7z"/>
    <path d="M120.5 103l-9 22.1 8.7-22.3-7.2-3-11.2 30.3-3.7 8-10.4-38.3-7.1 1.8c.6 3.2 2 11.1 3.4 16.4l-3.2-11-1.1-5.2-2 .6 8.6 28.4 4.7 22.5-1.9 4 11 2.7 22.4-56.2-2-.9zm30.4-1.6l-8.1-.5h-1.5l-16.8-1v8.5l4.6-.3c1.3 0 2.9.1 4.7.5 1.9.4 1.4.6.7.7-.8.2-3.9 0-4.9 0l-5.1.5v2.1l17.6-1 1.3 17.4-.4 29.7h2.1l-.3-5.2v-10.3c.1 5.4.9 12.5 1.3 15.4l7.3-.2-.7-46.6 14.5.8 3-12zm-6 9.3c.6 8.5 1.5 26.3 1.5 26.3s-1.3-17.4-1.7-26.3zm5 4c-.1 1.6-.1-.3-.2-3.8h.3l-.1 3.7zm26.8-13.7c0 8.3-.1 15.8-.3 13-.1-2.3 0-7.5.1-12.9l-2.7.3-.8 55.6 7.3.2c.4-3 1.1-10.3 1.3-15.8v10.7l-.3 5.2h2.1l-.4-29.7 2-27.5zm5.1 5.1a821 821 0 0 1-1.9 30.2s1.9-35.9 1.9-30.2zm27 41.4h-6.5l-.8-12.7 1.6-36.4h-8.6l.3 6.3c0 1.7-.1 4-.5 6.5-.4 2.6-.6 2-.7 1v-6.8l-.4-7H191l1.3 28.6-.9 20.2h-2.9v2l2.8-.2v.7l-2.7.5.1 7.3h2.6l11.8 4-.3-4.3 23.9-.5.2-2.7h-8.8c-2 0 3.2-.2 8.8-.2l.6-8.4zm-5.9 3.1s16.6-1.9 20.5-1.9c4 0-20.5 2-20.5 2zm56.8-7.2v-.8l.6-4h.9l.2-2.7h-.7v-.5l.7.1.8-9.7-16.4-1-3.9-1-.2-8.9 20 .7.1-2.8c-5.1 0-12.3-.5-12.3-.5l12.3.2.1-9.8-16.4.5-2.3-.4.5-3.4-11.2.7v1l-2.1-.5.7 14h1l-.2 6.4-1-.3-.2 14 19.9 2.6-.6 6.8-19.9 1.5.1 2.7c5.1-.4 12.3-.7 12.3-.7l-12.2 1.1.5 9.7 16.3-2.2 15.2 1-1.6-13.8zM240.3 121v2.4h-.3z"/>
  </g>
</svg>
